<svg version="1" xmlns="http://www.w3.org/2000/svg" width="346.667" height="346.667" viewBox="0 0 260.000000 260.000000"><path d="M10.9 2.8C6.6 5 5 6.6 2.8 10.9L0 16.3l.2 114.6c.3 123.9 0 116.3 5.7 122.4 6.1 6.7-3.2 6.2 123.2 6.5l114.6.2 5.4-2.8c4.3-2.2 5.9-3.8 8.1-8.1l2.8-5.4-.2-115.2-.3-115.1-2.7-4.1c-1.5-2.2-4.4-5.1-6.5-6.4L246.5.5 131.4.2 16.3 0l-5.4 2.8zm147.6 17.6C172 24 180.8 28.5 183.2 33c3.6 6.8 1.9 15.2-4.1 20.3-5 4.2-8.6 4.2-20.8.1-20.4-6.8-39.5-6.7-57.8.5-21.7 8.4-39.8 27.2-47.9 49.9-3 8.4-3.1 9.2-3.1 25.7 0 16 .2 17.5 2.8 25 9.4 27.3 31.2 47.7 58.1 54.5 10.8 2.7 28 2.7 39.3 0 24.1-5.8 45.9-24.4 55.7-47.8 4-9.5 5.6-17.5 6.3-32 .5-11.3.9-13.9 2.7-16.4 3.6-5.3 7.1-7.2 13.1-7.2 6.1 0 9.4 1.8 13.4 7.5 2.2 3.3 2.3 3.8 1.8 19.4-.4 13-1 17.9-3.2 26-6.6 25.1-23.1 49.2-43.6 63.8-9.3 6.5-25.9 14.3-37.6 17.4-8.9 2.5-11.5 2.7-28.3 2.7-17.2.1-19.2-.1-28.3-2.6-22-6.2-37.6-15.2-52.7-30.7-14.5-14.9-23.6-31-29.1-51.7-3-11.4-3.8-36-1.4-47.5 7.2-36 28-64.1 59-80.1 19.7-10.1 32.4-12.9 55-12.4 13.4.3 17.7.8 26 3zM236 38.9c6.3 4.5 9 14 5.7 19.7-.7 1.2-24.1 25.3-52.2 53.7-46.1 46.5-51.4 51.6-55.3 52.5-8.5 2-11 .6-29.1-17.2C88.3 131 85 126.6 85 120c0-4.6 3.7-10.9 7.7-13.3 3.7-2.1 10.9-2.5 14.5-.7 1.2.7 6.9 5.8 12.6 11.3l10.2 10.2 44.8-44.8c29.1-29.1 45.8-45.1 47.7-45.7 4-1.2 10.4-.4 13.5 1.9z"/></svg>